<?xml version="1.0" standalone="no"?>
<!DOCTYPE svg PUBLIC "-//W3C//DTD SVG 20010904//EN"
 "http://www.w3.org/TR/2001/REC-SVG-20010904/DTD/svg10.dtd">
<svg version="1.0" xmlns="http://www.w3.org/2000/svg"
 width="300.000000pt" height="171.000000pt" viewBox="0 0 300.000000 171.000000"
 preserveAspectRatio="xMidYMid meet">
<metadata>
Created by potrace 1.10, written by Peter Selinger 2001-2011
</metadata>
<g transform="translate(0.000000,171.000000) scale(0.100000,-0.100000)"
fill="#000000" stroke="none">
<path d="M252 1036 l-37 -34 -3 -164 c-3 -157 -2 -164 20 -198 14 -21 38 -40
58 -47 54 -17 284 -16 320 2 34 17 70 65 70 92 0 33 12 34 48 7 65 -51 149
-49 205 4 l27 26 29 -28 c52 -49 144 -52 186 -6 23 25 29 25 68 -4 61 -45 113
-45 167 0 l29 25 30 -33 29 -33 35 17 c31 15 37 15 47 2 20 -23 56 -16 83 16
14 17 29 30 34 30 4 0 21 -13 36 -30 33 -35 55 -37 89 -11 23 19 24 19 48 0
33 -25 52 -24 78 4 18 19 22 35 22 93 0 71 0 71 37 95 30 19 37 30 35 49 -6
47 -35 60 -133 60 -52 0 -97 -5 -109 -12 -14 -9 -25 -9 -42 -1 -42 21 -77 24
-112 9 -21 -9 -38 -11 -47 -5 -8 6 -61 9 -119 8 -58 -1 -121 1 -140 5 -28 5
-46 1 -82 -18 -46 -24 -46 -24 -64 -5 -13 14 -25 18 -42 14 -41 -10 -52 -29
-53 -94 -2 -79 -19 -91 -19 -13 0 97 -52 141 -104 89 l-24 -24 -42 25 c-61 36
-118 34 -176 -6 -24 -18 -47 -32 -49 -32 -3 0 -5 16 -5 35 0 50 -23 89 -64
109 -27 12 -66 16 -180 16 l-146 0 -38 -34z m374 -27 c17 -19 18 -36 17 -181
-3 -217 5 -208 -193 -208 -134 0 -150 2 -174 21 l-26 20 0 165 c0 217 -12 204
198 204 148 0 160 -1 178 -21z m291 -113 c27 -29 33 -44 33 -81 0 -37 -6 -52
-33 -81 -78 -85 -210 -36 -210 80 0 79 55 129 133 122 35 -3 51 -11 77 -40z
m123 -44 c0 -96 7 -112 52 -112 38 0 51 34 46 125 -3 66 -2 70 20 73 22 3 22
1 22 -96 0 -100 0 -100 -31 -126 -40 -34 -88 -34 -126 -2 -27 23 -28 29 -31
125 l-4 101 26 0 26 0 0 -88z m344 67 c49 -38 17 -73 -35 -37 -29 22 -59 15
-59 -12 0 -18 6 -22 65 -35 104 -23 75 -145 -34 -145 -28 0 -91 41 -91 60 0
16 43 19 58 4 21 -22 77 -15 77 10 0 15 -11 23 -48 32 -62 16 -77 29 -77 69 0
41 38 75 85 75 18 0 44 -9 59 -21z m214 -8 c3 -18 -2 -21 -32 -21 l-36 0 0
-100 c0 -97 -1 -100 -22 -100 -23 0 -23 2 -20 100 l3 100 -34 0 c-29 0 -33 3
-31 23 1 12 3 22 3 22 141 0 166 -4 169 -24z m150 13 c12 -8 22 -21 22 -28 0
-21 -29 -28 -51 -12 -26 17 -59 9 -59 -14 0 -10 20 -35 45 -56 36 -29 43 -39
34 -50 -19 -23 -36 -16 -84 29 -53 51 -58 85 -20 122 28 29 79 33 113 9z m262
-11 c0 -20 -5 -23 -40 -23 l-40 0 0 -100 0 -100 -26 0 -25 0 2 98 2 97 -37 3
c-29 3 -36 7 -36 25 0 21 4 22 100 22 97 0 100 -1 100 -22z m-182 -69 c19 -13
21 -21 16 -57 -4 -23 -8 -44 -10 -46 -6 -6 -63 50 -76 72 -7 14 -5 22 9 33 23
18 34 17 61 -2z m-228 -65 c0 -10 -7 -19 -15 -19 -15 0 -21 31 -9 43 11 10 24
-3 24 -24z m46 -54 c7 -18 -13 -45 -33 -45 -17 0 -27 24 -19 45 7 20 45 19 52
0z m152 3 c19 -19 15 -48 -7 -48 -24 0 -45 25 -37 45 7 18 27 20 44 3z"/>
<path d="M540 950 c0 -28 3 -30 35 -30 32 0 35 2 35 30 0 28 -3 30 -35 30 -32
0 -35 -2 -35 -30z"/>
<path d="M413 915 c-81 -35 -69 -148 18 -170 61 -15 123 57 100 116 -20 53
-69 75 -118 54z m65 -47 c39 -39 -12 -103 -57 -72 -38 27 -22 84 24 84 12 0
26 -5 33 -12z"/>
<path d="M771 864 c-28 -35 -26 -69 4 -99 48 -48 125 -16 125 51 0 69 -87 101
-129 48z m80 -30 c9 -11 10 -20 3 -32 -15 -23 -29 -25 -48 -7 -12 12 -13 21
-6 36 13 23 33 25 51 3z"/>
<path d="M2122 954 c-23 -16 -107 -173 -123 -228 -7 -24 -5 -34 13 -53 29 -31
56 -29 90 9 38 43 84 42 133 -1 20 -17 45 -31 55 -31 20 0 54 27 61 48 2 6 25
12 52 13 40 2 51 -2 77 -26 26 -25 39 -30 90 -31 66 -1 95 18 102 66 2 19 10
26 31 28 24 3 27 0 27 -26 0 -29 35 -72 59 -72 6 0 23 11 36 25 24 23 25 31
25 134 0 101 -2 112 -23 137 -28 32 -55 29 -100 -10 l-28 -25 -43 31 c-37 26
-47 28 -65 18 -23 -12 -45 -56 -37 -75 2 -7 1 -18 -4 -25 -6 -9 -12 -5 -24 17
-25 49 -66 93 -87 93 -34 0 -68 -30 -93 -83 -42 -86 -41 -86 -69 -30 -54 106
-101 135 -155 97z m139 -146 c33 -66 59 -121 57 -123 -2 -2 -15 -1 -30 2 -17
3 -31 15 -38 34 -12 28 -15 29 -82 29 -68 0 -70 -1 -81 -29 -7 -19 -20 -31
-36 -34 -14 -3 -27 -4 -29 -2 -2 1 23 59 56 127 59 125 59 125 90 120 29 -4
37 -14 93 -124z m249 10 c30 -67 56 -124 58 -128 1 -4 -11 -5 -27 -2 -21 3
-33 12 -41 33 -12 29 -13 29 -96 29 l-84 0 47 95 c65 131 72 129 143 -27z
m143 77 c21 -25 41 -45 45 -45 4 1 23 21 42 45 19 25 43 45 52 45 16 0 18 -13
18 -128 0 -127 0 -129 -22 -127 -22 2 -23 5 -19 83 1 45 0 82 -3 82 -4 0 -21
-16 -38 -36 l-32 -36 -33 38 -33 39 3 -82 c1 -46 -1 -83 -5 -83 -39 0 -38 -4
-38 125 0 144 5 150 63 80z"/>
<path d="M2144 844 l-21 -44 44 0 c23 0 43 2 43 4 0 2 -10 22 -23 44 l-23 40
-20 -44z"/>
<path d="M2409 835 l-16 -35 37 0 37 0 -16 35 c-9 19 -18 34 -21 34 -3 0 -12
-15 -21 -34z"/>
</g>
</svg>
