<?xml version="1.0" encoding="UTF-8"?>
<!DOCTYPE svg PUBLIC "-//W3C//DTD SVG 1.1//EN" "http://www.w3.org/Graphics/SVG/1.1/DTD/svg11.dtd">
<svg xmlns="http://www.w3.org/2000/svg" version="1.1" width="61px" height="67px" style="shape-rendering:geometricPrecision; text-rendering:geometricPrecision; image-rendering:optimizeQuality; fill-rule:evenodd; clip-rule:evenodd" xmlns:xlink="http://www.w3.org/1999/xlink">
<g><path style="opacity:0.964" fill="#161616" d="M 60.5,18.5 C 60.5,29.1667 60.5,39.8333 60.5,50.5C 58.8816,56.2961 55.2149,60.4627 49.5,63C 36.8333,65 24.1667,65 11.5,63C 7.29076,61.813 4.12409,59.313 2,55.5C 0.881365,47.5732 0.381365,39.5732 0.5,31.5C 0.666667,24.5 0.833333,17.5 1,10.5C 3.53656,7.62804 6.36989,5.12804 9.5,3C 23.5556,2.0717 37.5556,2.40504 51.5,4C 57.3678,7.15895 60.3678,11.9923 60.5,18.5 Z M 11.5,8.5 C 24.1711,8.33345 36.8377,8.50012 49.5,9C 50.9308,9.46524 52.0975,10.2986 53,11.5C 54.9392,25.1396 54.9392,38.8062 53,52.5C 52.2155,54.286 51.0488,55.786 49.5,57C 38.2253,58.5757 26.892,58.9091 15.5,58C 12.0273,57.6806 9.19397,56.1806 7,53.5C 6.33333,40.5 6.33333,27.5 7,14.5C 7.59854,11.7458 9.09854,9.74583 11.5,8.5 Z M 29.5,26.5 C 37.217,29.8189 37.3837,33.4856 30,37.5C 24.2017,34.03 24.0351,30.3633 29.5,26.5 Z"/></g>
<g><path style="opacity:1" fill="#1e1e1e" d="M 42.5,13.5 C 45.1873,13.3359 47.854,13.5026 50.5,14C 51.5914,16.0639 51.7581,18.2305 51,20.5C 43.1136,23.6516 40.2802,21.3183 42.5,13.5 Z"/></g>
<g><path style="opacity:0.979" fill="#151515" d="M 27.5,20.5 C 38.3209,20.4882 42.8209,25.8216 41,36.5C 37.807,43.1234 32.6404,45.2901 25.5,43C 15.7621,34.5344 16.4287,27.0344 27.5,20.5 Z M 29.5,26.5 C 24.0351,30.3633 24.2017,34.03 30,37.5C 37.3837,33.4856 37.217,29.8189 29.5,26.5 Z"/></g>
</svg>
